<svg width="1920" height="1080" viewBox="0 0 1920 1080" fill="none" xmlns="http://www.w3.org/2000/svg">
  <defs>
    <linearGradient id="grad5" x1="0%" y1="0%" x2="100%" y2="100%">
      <stop offset="0%" style="stop-color:#06B6D4;stop-opacity:0.15" />
      <stop offset="100%" style="stop-color:#3B82F6;stop-opacity:0.1" />
    </linearGradient>
  </defs>

  <rect width="1920" height="1080" fill="#0F1629"/>
  <rect width="1920" height="1080" fill="url(#grad5)"/>

  <pattern id="grid5" width="60" height="60" patternUnits="userSpaceOnUse">
    <circle cx="2" cy="2" r="1" fill="#06B6D4" opacity="0.15"/>
  </pattern>
  <rect width="1920" height="1080" fill="url(#grid5)" opacity="0.3"/>

  <!-- Building Icon -->
  <rect x="880" y="400" width="160" height="200" rx="8" stroke="#06B6D4" stroke-width="6" fill="none" opacity="0.4"/>
  <rect x="900" y="420" width="30" height="30" fill="#06B6D4" opacity="0.3"/>
  <rect x="940" y="420" width="30" height="30" fill="#06B6D4" opacity="0.3"/>
  <rect x="980" y="420" width="30" height="30" fill="#06B6D4" opacity="0.3"/>
  <rect x="900" y="460" width="30" height="30" fill="#3B82F6" opacity="0.3"/>
  <rect x="940" y="460" width="30" height="30" fill="#3B82F6" opacity="0.3"/>
  <rect x="980" y="460" width="30" height="30" fill="#3B82F6" opacity="0.3"/>
  <rect x="900" y="500" width="30" height="30" fill="#3B82F6" opacity="0.3"/>
  <rect x="940" y="500" width="30" height="30" fill="#3B82F6" opacity="0.3"/>
  <rect x="980" y="500" width="30" height="30" fill="#3B82F6" opacity="0.3"/>

  <text x="960" y="680" font-family="system-ui, -apple-system, sans-serif" font-size="36" font-weight="700" fill="#FFFFFF" text-anchor="middle">Bauunternehmen Portal</text>
  <text x="960" y="730" font-family="system-ui, -apple-system, sans-serif" font-size="22" fill="#9CA3AF" text-anchor="middle">1920 × 1080 px (16:9)</text>
</svg>
